<svg width="25" height="25" viewBox="0 0 25 25" fill="none" xmlns="http://www.w3.org/2000/svg">
<path d="M6.77083 18.2291L14.5833 14.5833L18.2292 6.77081L10.4167 10.4166L6.77083 18.2291ZM12.5 13.5416C12.2049 13.5416 11.9575 13.4418 11.7578 13.2422C11.5582 13.0425 11.4583 12.7951 11.4583 12.5C11.4583 12.2048 11.5582 11.9574 11.7578 11.7578C11.9575 11.5581 12.2049 11.4583 12.5 11.4583C12.7951 11.4583 13.0425 11.5581 13.2422 11.7578C13.4418 11.9574 13.5417 12.2048 13.5417 12.5C13.5417 12.7951 13.4418 13.0425 13.2422 13.2422C13.0425 13.4418 12.7951 13.5416 12.5 13.5416ZM12.5 22.9166C11.059 22.9166 9.70486 22.6432 8.4375 22.0963C7.17013 21.5495 6.0677 20.8073 5.1302 19.8698C4.1927 18.9323 3.45052 17.8298 2.90364 16.5625C2.35677 15.2951 2.08333 13.941 2.08333 12.5C2.08333 11.059 2.35677 9.70484 2.90364 8.43748C3.45052 7.17012 4.1927 6.06769 5.1302 5.13019C6.0677 4.19269 7.17013 3.4505 8.4375 2.90363C9.70486 2.35675 11.059 2.08331 12.5 2.08331C13.941 2.08331 15.2951 2.35675 16.5625 2.90363C17.8299 3.4505 18.9323 4.19269 19.8698 5.13019C20.8073 6.06769 21.5495 7.17012 22.0963 8.43748C22.6432 9.70484 22.9167 11.059 22.9167 12.5C22.9167 13.941 22.6432 15.2951 22.0963 16.5625C21.5495 17.8298 20.8073 18.9323 19.8698 19.8698C18.9323 20.8073 17.8299 21.5495 16.5625 22.0963C15.2951 22.6432 13.941 22.9166 12.5 22.9166ZM12.5 20.8333C14.8264 20.8333 16.7969 20.026 18.4115 18.4114C20.026 16.7969 20.8333 14.8264 20.8333 12.5C20.8333 10.1736 20.026 8.2031 18.4115 6.58852C16.7969 4.97394 14.8264 4.16665 12.5 4.16665C10.1736 4.16665 8.20312 4.97394 6.58854 6.58852C4.97395 8.2031 4.16666 10.1736 4.16666 12.5C4.16666 14.8264 4.97395 16.7969 6.58854 18.4114C8.20312 20.026 10.1736 20.8333 12.5 20.8333Z" fill="#2D3136"/>
</svg>
