<svg width="25" height="25" viewBox="0 0 25 25" fill="none" xmlns="http://www.w3.org/2000/svg">
<path d="M10.4167 14.5833H14.5833V12.5H10.4167V14.5833ZM10.4167 11.4583H18.75V9.37498H10.4167V11.4583ZM10.4167 8.33331H18.75V6.24998H10.4167V8.33331ZM8.33334 18.75C7.76042 18.75 7.26997 18.546 6.86198 18.138C6.454 17.73 6.25 17.2396 6.25 16.6666V4.16665C6.25 3.59373 6.454 3.10328 6.86198 2.69529C7.26997 2.28731 7.76042 2.08331 8.33334 2.08331H20.8333C21.4063 2.08331 21.8967 2.28731 22.3047 2.69529C22.7127 3.10328 22.9167 3.59373 22.9167 4.16665V16.6666C22.9167 17.2396 22.7127 17.73 22.3047 18.138C21.8967 18.546 21.4063 18.75 20.8333 18.75H8.33334ZM8.33334 16.6666H20.8333V4.16665H8.33334V16.6666ZM4.16667 22.9166C3.59375 22.9166 3.1033 22.7127 2.69532 22.3047C2.28733 21.8967 2.08334 21.4062 2.08334 20.8333V6.24998H4.16667V20.8333H18.75V22.9166H4.16667Z" fill="#2D3136"/>
</svg>
