<svg width="25" height="25" viewBox="0 0 25 25" fill="none" xmlns="http://www.w3.org/2000/svg">
<path d="M6.09375 17.8125C6.97917 17.1354 7.96875 16.6015 9.0625 16.2109C10.1563 15.8203 11.3021 15.625 12.5 15.625C13.6979 15.625 14.8438 15.8203 15.9375 16.2109C17.0313 16.6015 18.0208 17.1354 18.9063 17.8125C19.5139 17.1007 19.987 16.2934 20.3255 15.3906C20.6641 14.4878 20.8333 13.5243 20.8333 12.5C20.8333 10.191 20.0217 8.22481 18.3984 6.60154C16.7752 4.97828 14.809 4.16665 12.5 4.16665C10.191 4.16665 8.22483 4.97828 6.60156 6.60154C4.9783 8.22481 4.16667 10.191 4.16667 12.5C4.16667 13.5243 4.33594 14.4878 4.67448 15.3906C5.01302 16.2934 5.48611 17.1007 6.09375 17.8125ZM12.5 13.5416C11.4757 13.5416 10.612 13.1901 9.90885 12.487C9.20573 11.7838 8.85417 10.9201 8.85417 9.89581C8.85417 8.87151 9.20573 8.00779 9.90885 7.30467C10.612 6.60154 11.4757 6.24998 12.5 6.24998C13.5243 6.24998 14.388 6.60154 15.0911 7.30467C15.7943 8.00779 16.1458 8.87151 16.1458 9.89581C16.1458 10.9201 15.7943 11.7838 15.0911 12.487C14.388 13.1901 13.5243 13.5416 12.5 13.5416ZM12.5 22.9166C11.059 22.9166 9.70486 22.6432 8.4375 22.0963C7.17014 21.5495 6.06771 20.8073 5.13021 19.8698C4.19271 18.9323 3.45052 17.8298 2.90365 16.5625C2.35677 15.2951 2.08333 13.941 2.08333 12.5C2.08333 11.059 2.35677 9.70484 2.90365 8.43748C3.45052 7.17012 4.19271 6.06769 5.13021 5.13019C6.06771 4.19269 7.17014 3.4505 8.4375 2.90363C9.70486 2.35675 11.059 2.08331 12.5 2.08331C13.941 2.08331 15.2951 2.35675 16.5625 2.90363C17.8299 3.4505 18.9323 4.19269 19.8698 5.13019C20.8073 6.06769 21.5495 7.17012 22.0964 8.43748C22.6432 9.70484 22.9167 11.059 22.9167 12.5C22.9167 13.941 22.6432 15.2951 22.0964 16.5625C21.5495 17.8298 20.8073 18.9323 19.8698 19.8698C18.9323 20.8073 17.8299 21.5495 16.5625 22.0963C15.2951 22.6432 13.941 22.9166 12.5 22.9166ZM12.5 20.8333C13.4201 20.8333 14.2882 20.6988 15.1042 20.4297C15.9201 20.1606 16.6667 19.7743 17.3438 19.2708C16.6667 18.7673 15.9201 18.3811 15.1042 18.112C14.2882 17.8429 13.4201 17.7083 12.5 17.7083C11.5799 17.7083 10.7118 17.8429 9.89583 18.112C9.07986 18.3811 8.33333 18.7673 7.65625 19.2708C8.33333 19.7743 9.07986 20.1606 9.89583 20.4297C10.7118 20.6988 11.5799 20.8333 12.5 20.8333ZM12.5 11.4583C12.9514 11.4583 13.3247 11.3107 13.6198 11.0156C13.9149 10.7205 14.0625 10.3472 14.0625 9.89581C14.0625 9.44442 13.9149 9.07116 13.6198 8.77602C13.3247 8.48088 12.9514 8.33331 12.5 8.33331C12.0486 8.33331 11.6753 8.48088 11.3802 8.77602C11.0851 9.07116 10.9375 9.44442 10.9375 9.89581C10.9375 10.3472 11.0851 10.7205 11.3802 11.0156C11.6753 11.3107 12.0486 11.4583 12.5 11.4583Z" fill="#2D3136"/>
</svg>
