<svg width="89" height="123" viewBox="0 0 89 123" fill="none" xmlns="http://www.w3.org/2000/svg">
<path d="M34.5 77.25H52L43.5 65L34.5 77.25Z" fill="#38A3A5"/>
<path d="M19 86C19 86 24.5 104 44 103.5C63.5 103 68.5 86 68.5 86V77.25H52L43.5 90L34.5 77.25H19V86Z" fill="#38A3A5"/>
<path d="M68.5 44C71 32.5 87 29.5 87 29.5V86C81.1962 107.423 65.5 121.5 44 121.5C22.5 121.5 10.0383 108.323 2 86V29.5C2 29.5 3 22.5 9 22.5C15 22.5 19 26 19 26M68.5 44C68.5 33.8464 68.5 13.5 68.5 13.5C68.5 13.5 64.0834 9.09137 60.5 9.00001C56.7453 8.90428 52 13.5 52 13.5M68.5 44C68.5 55.3252 68.5 68.5 68.5 68.5M52 13.5C52 13.5 48.5 2 43.5 2C37.8239 2 34.5 12 34.5 12M52 13.5V53M34.5 12C34.5 12 30 11 26 11C22 11 19 17.5 19 17.5V26M34.5 12V53M19 26V68.5M34.5 53C27 56 23 60 19 68.5M34.5 53C41.5 51 44.5 51.5 52 53M52 53C60 56.5 63.5 60.5 68.5 68.5M68.5 68.5V77.25M19 68.5V77.25M19 77.25V86C19 86 24.5 104 44 103.5C63.5 103 68.5 86 68.5 86V77.25M19 77.25H34.5M34.5 77.25L43.5 90L52 77.25M34.5 77.25H52M34.5 77.25L43.5 65L52 77.25M52 77.25H68.5" stroke="#38A3A5" stroke-width="3" stroke-linejoin="round"/>
</svg>
